<?xml version="1.0" encoding="UTF-8" standalone="no"?>
<!-- Created with Inkscape (http://www.inkscape.org/) -->

<svg
   version="1.1"
   id="svg1"
   width="64"
   height="64"
   viewBox="0 0 64 64.000002"
   xmlns="http://www.w3.org/2000/svg"
   xmlns:svg="http://www.w3.org/2000/svg">
  <defs
     id="defs1" />
  <rect
     style="fill:#000000;stroke-width:1.21887"
     id="rect1"
     width="64"
     height="64"
     x="0"
     y="0" />
  <path
     id="path2"
     style="fill:#ffffff;stroke-width:0.83045"
     d="M 31.767578,3.765625 A 28.235294,28.235294 0 0 0 3.5332031,32 28.235294,28.235294 0 0 0 13.966797,53.853516 C 13.797381,53.674508 13.6875,53.548828 13.6875,53.548828 c 0,0 15.909904,9.624229 16.623047,-15.228516 -0.334767,-0.01236 -0.55191,-0.04028 -0.591797,-0.0918 -0.039,-0.0503 -0.08145,-0.18883 -0.09375,-0.308594 l -0.02148,-0.216797 -0.158204,0.302734 c -0.101839,0.19502 -0.194239,0.28919 -0.255859,0.263672 -0.0737,-0.03052 -0.106997,0.07849 -0.148437,0.464844 l -0.05469,0.501953 -1.501953,0.720703 c -0.82653,0.39539 -1.535519,0.707338 -1.574219,0.69336 -0.0387,-0.014 -0.126852,-0.220605 -0.195312,-0.458985 -0.0685,-0.238388 -0.122354,-0.570567 -0.121094,-0.738281 l 0.002,-0.304687 0.822266,-0.990235 c 0.45285,-0.544644 1.197737,-1.432656 1.654297,-1.972656 l 0.830078,-0.982422 0.05469,-0.841797 0.05664,-0.84375 -0.167969,0.03711 c -0.0921,0.0205 -0.746958,0.130536 -1.455078,0.24414 -0.70813,0.1136 -1.350924,0.235695 -1.427734,0.271484 -0.0768,0.0358 -0.51523,0.129965 -0.97461,0.208985 -0.45938,0.07902 -0.976387,0.152309 -1.148437,0.162109 -0.17204,0.0098 -0.52303,0.03917 -0.78125,0.06641 l -0.470703,0.05078 0.01367,-0.935547 c 0.0114,-0.786238 0.03668,-0.980367 0.158204,-1.234375 0.10566,-0.220822 0.75054,-0.865023 2.40039,-2.400391 1.24018,-1.15416 2.682378,-2.499665 3.205028,-2.988279 l 0.949219,-0.888672 0.05469,-0.439453 c 0.0298,-0.24252 0.123594,-0.783502 0.208984,-1.201172 0.0854,-0.41767 0.251361,-1.142544 0.369141,-1.611328 0.11778,-0.468786 0.378105,-1.378015 0.578125,-2.019531 0.20003,-0.641516 0.474798,-1.554637 0.611328,-2.029297 l 0.25,-0.863281 0.04883,-1.240235 c 0.0277,-0.682168 0.0813,-1.539988 0.119141,-1.90625 0.0448,-0.434178 0.156755,-0.925094 0.322265,-1.410156 0.21891,-0.641522 0.26287,-0.877407 0.318359,-1.720703 l 0.06445,-0.978516 0.03125,1.015625 0.0332,1.015625 0.248047,0.783203 0.25,0.785157 0.07227,1.9375 0.07227,1.939453 0.267578,0.945312 c 0.14694,0.52011 0.423261,1.501531 0.613281,2.181641 0.19002,0.680116 0.41412,1.563132 0.5,1.96289 0.0859,0.399762 0.218499,1.066565 0.292969,1.480469 0.0745,0.413902 0.132619,0.885408 0.130859,1.048828 l -0.002,0.296875 0.429688,0.445313 c 0.23616,0.244024 1.264276,1.254572 2.285156,2.246094 1.02088,0.991524 2.219099,2.155834 2.662109,2.58789 0.44301,0.432054 0.882403,0.893515 0.976563,1.025391 0.0941,0.13188 0.201434,0.403759 0.240234,0.603516 0.0388,0.199759 0.05827,0.670279 0.04297,1.046874 l -0.02734,0.685547 -0.3125,-0.0098 c -0.17186,-0.005 -0.522117,-0.03362 -0.779297,-0.0625 -0.25718,-0.02888 -0.850809,-0.123778 -1.318359,-0.210938 -0.46755,-0.08716 -0.912271,-0.189581 -0.988281,-0.228515 -0.076,-0.03892 -0.700339,-0.175494 -1.386719,-0.304688 -0.68637,-0.12918 -1.335079,-0.256494 -1.443359,-0.28125 l -0.197266,-0.04492 0.04102,0.824219 0.04102,0.822266 0.632813,0.804687 c 0.34815,0.442746 1.067939,1.349444 1.599609,2.013672 0.53169,0.664222 0.984578,1.294029 1.00586,1.400391 0.0216,0.10798 -0.03151,0.452897 -0.121094,0.779296 -0.0882,0.321498 -0.197198,0.582566 -0.242188,0.582032 -0.045,-4.54e-4 -0.732573,-0.331796 -1.527344,-0.736328 -1.146079,-0.58334 -1.45588,-0.769241 -1.49414,-0.904297 -0.0265,-0.09366 -0.06534,-0.32716 -0.08594,-0.517578 -0.0206,-0.19042 -0.05959,-0.33219 -0.08789,-0.314453 -0.0282,0.0176 -0.0849,0.01022 -0.125,-0.01758 -0.0401,-0.02774 -0.121601,-0.149185 -0.181641,-0.269531 -0.0887,-0.17776 -0.109894,-0.191959 -0.115234,-0.07422 -0.004,0.07972 -0.04809,0.202315 -0.09961,0.271485 -0.06391,0.08577 -0.177046,0.113287 -0.52539,0.117187 0.765321,19.79501 11.059272,17.679704 15.210937,16.007813 A 28.235294,28.235294 0 0 0 60.003906,32 28.235294,28.235294 0 0 0 31.767578,3.765625 Z" />
</svg>
